HIERARCHY
ROOT Hips
{
	OFFSET 0.000000 121.760803 0.000000
	CHANNELS 6 Xposition Yposition Zposition Xrotation Yrotation Zrotation 
	JOINT Spine
	{
		OFFSET 0.072000 7.257294 -0.789700
		CHANNELS 3 Xrotation Yrotation Zrotation
		JOINT Spine1
		{
			OFFSET 0.000000 12.508769 -0.658067
			CHANNELS 3 Xrotation Yrotation Zrotation
			JOINT Spine1_split
			{
				OFFSET 0.000000 12.508769 -0.658067
				CHANNELS 3 Xrotation Yrotation Zrotation
				JOINT Spine2
				{
					OFFSET 0.000000 12.508769 -0.658067
					CHANNELS 3 Xrotation Yrotation Zrotation
					JOINT Neck
					{
						OFFSET 0.000000 14.033295 7.520400
						CHANNELS 3 Xrotation Yrotation Zrotation
						JOINT Head
						{
							OFFSET 0.000000 8.198502 5.703100
							CHANNELS 3 Xrotation Yrotation Zrotation
							JOINT HeadTop_End
							{
								OFFSET 0.000000 17.760803 13.332701
								CHANNELS 3 Xrotation Yrotation Zrotation
								End Site
								{
									OFFSET 0.000000 0.000000 0.000000
								}
							}
						}
					}
					JOINT LeftShoulder
					{
						OFFSET 6.292450 5.785301 -0.669000
						CHANNELS 3 Xrotation Yrotation Zrotation
						JOINT LeftShoulder_split
						{
							OFFSET 6.292450 5.785301 -0.669000
							CHANNELS 3 Xrotation Yrotation Zrotation
							JOINT LeftArm
							{
								OFFSET 13.907140 -6.093903 1.965100
								CHANNELS 3 Xrotation Yrotation Zrotation
								JOINT LeftForeArm
								{
									OFFSET 34.140198 0.000000 0.000000
									CHANNELS 3 Xrotation Yrotation Zrotation
									JOINT LeftHand
									{
										OFFSET 40.960209 0.000000 0.000000
										CHANNELS 3 Xrotation Yrotation Zrotation
										JOINT LeftHandThumb1
										{
											OFFSET 10.006996 -7.170425 9.573125
											CHANNELS 3 Xrotation Yrotation Zrotation
											JOINT LeftHandThumb2
											{
												OFFSET 1.835007 -1.059448 1.059443
												CHANNELS 3 Xrotation Yrotation Zrotation
												JOINT LeftHandThumb3
												{
													OFFSET 2.112267 -1.219513 1.219518
													CHANNELS 3 Xrotation Yrotation Zrotation
													JOINT LeftHandThumb4
													{
														OFFSET 4.843811 -2.796570 2.796576
														CHANNELS 3 Xrotation Yrotation Zrotation
														End Site
														{
															OFFSET 0.000000 0.000000 0.000000
														}
													}
												}
											}
										}
										JOINT LeftHandIndex1
										{
											OFFSET 18.389847 -0.922348 4.596882
											CHANNELS 3 Xrotation Yrotation Zrotation
											JOINT LeftHandIndex2
											{
												OFFSET 4.711273 0.000000 0.000000
												CHANNELS 3 Xrotation Yrotation Zrotation
												JOINT LeftHandIndex3
												{
													OFFSET 2.886131 0.000000 0.000000
													CHANNELS 3 Xrotation Yrotation Zrotation
													JOINT LeftHandIndex4
													{
														OFFSET 6.145912 0.000000 0.000000
														CHANNELS 3 Xrotation Yrotation Zrotation
														End Site
														{
															OFFSET 0.000000 0.000000 0.000000
														}
													}
												}
											}
										}
										JOINT LeftHandMiddle1
										{
											OFFSET 18.013008 0.000000 0.000000
											CHANNELS 3 Xrotation Yrotation Zrotation
											JOINT LeftHandMiddle2
											{
												OFFSET 4.946693 0.000000 0.000000
												CHANNELS 3 Xrotation Yrotation Zrotation
												JOINT LeftHandMiddle3
												{
													OFFSET 3.342232 0.000000 0.000000
													CHANNELS 3 Xrotation Yrotation Zrotation
													JOINT LeftHandMiddle4
													{
														OFFSET 4.461754 0.000000 0.000000
														CHANNELS 3 Xrotation Yrotation Zrotation
														End Site
														{
															OFFSET 0.000000 0.000000 0.000000
														}
													}
												}
											}
										}
										JOINT LeftHandRing1
										{
											OFFSET 15.849892 -0.102921 -4.126150
											CHANNELS 3 Xrotation Yrotation Zrotation
											JOINT LeftHandRing2
											{
												OFFSET 3.527054 0.000000 0.000000
												CHANNELS 3 Xrotation Yrotation Zrotation
												JOINT LeftHandRing3
												{
													OFFSET 2.961098 0.000000 0.000000
													CHANNELS 3 Xrotation Yrotation Zrotation
													JOINT LeftHandRing4
													{
														OFFSET 4.927200 0.000000 0.000000
														CHANNELS 3 Xrotation Yrotation Zrotation
														End Site
														{
															OFFSET 0.000000 0.000000 0.000000
														}
													}
												}
											}
										}
										JOINT LeftHandPinky1
										{
											OFFSET 12.791824 -0.832031 -6.799156
											CHANNELS 3 Xrotation Yrotation Zrotation
											JOINT LeftHandPinky2
											{
												OFFSET 3.327133 0.000000 0.000000
												CHANNELS 3 Xrotation Yrotation Zrotation
												JOINT LeftHandPinky3
												{
													OFFSET 3.014900 0.000000 0.000000
													CHANNELS 3 Xrotation Yrotation Zrotation
													JOINT LeftHandPinky4
													{
														OFFSET 5.847786 0.000000 0.000000
														CHANNELS 3 Xrotation Yrotation Zrotation
														End Site
														{
															OFFSET 0.000000 0.000000 0.000000
														}
													}
												}
											}
										}
									}
								}
							}
						}
					}
					JOINT RightShoulder
					{
						OFFSET -6.292450 5.785301 -0.669000
						CHANNELS 3 Xrotation Yrotation Zrotation
						JOINT RightShoulder_split
						{
							OFFSET -6.292450 5.785301 -0.669000
							CHANNELS 3 Xrotation Yrotation Zrotation
							JOINT RightArm
							{
								OFFSET -13.907140 -6.093903 1.965100
								CHANNELS 3 Xrotation Yrotation Zrotation
								JOINT RightForeArm
								{
									OFFSET -34.140198 0.000000 0.000000
									CHANNELS 3 Xrotation Yrotation Zrotation
									JOINT RightHand
									{
										OFFSET -40.960209 0.000000 0.000000
										CHANNELS 3 Xrotation Yrotation Zrotation
										JOINT RightHandThumb1
										{
											OFFSET -10.007050 -7.170456 9.573117
											CHANNELS 3 Xrotation Yrotation Zrotation
											JOINT RightHandThumb2
											{
												OFFSET -1.835007 -1.059448 1.059443
												CHANNELS 3 Xrotation Yrotation Zrotation
												JOINT RightHandThumb3
												{
													OFFSET -2.112267 -1.219513 1.219518
													CHANNELS 3 Xrotation Yrotation Zrotation
													JOINT RightHandThumb4
													{
														OFFSET -4.843834 -2.796585 2.796590
														CHANNELS 3 Xrotation Yrotation Zrotation
														End Site
														{
															OFFSET 0.000000 0.000000 0.000000
														}
													}
												}
											}
										}
										JOINT RightHandIndex1
										{
											OFFSET -18.389870 -0.922424 4.596786
											CHANNELS 3 Xrotation Yrotation Zrotation
											JOINT RightHandIndex2
											{
												OFFSET -4.711273 0.000000 0.000000
												CHANNELS 3 Xrotation Yrotation Zrotation
												JOINT RightHandIndex3
												{
													OFFSET -2.886131 0.000000 0.000000
													CHANNELS 3 Xrotation Yrotation Zrotation
													JOINT RightHandIndex4
													{
														OFFSET -6.145920 0.000000 0.000000
														CHANNELS 3 Xrotation Yrotation Zrotation
														End Site
														{
															OFFSET 0.000000 0.000000 0.000000
														}
													}
												}
											}
										}
										JOINT RightHandMiddle1
										{
											OFFSET -18.013008 0.000000 0.000000
											CHANNELS 3 Xrotation Yrotation Zrotation
											JOINT RightHandMiddle2
											{
												OFFSET -4.946693 0.000000 0.000000
												CHANNELS 3 Xrotation Yrotation Zrotation
												JOINT RightHandMiddle3
												{
													OFFSET -3.342232 0.000000 0.000000
													CHANNELS 3 Xrotation Yrotation Zrotation
													JOINT RightHandMiddle4
													{
														OFFSET -4.461754 0.000000 0.000000
														CHANNELS 3 Xrotation Yrotation Zrotation
														End Site
														{
															OFFSET 0.000000 0.000000 0.000000
														}
													}
												}
											}
										}
										JOINT RightHandRing1
										{
											OFFSET -15.849876 -0.102936 -4.126237
											CHANNELS 3 Xrotation Yrotation Zrotation
											JOINT RightHandRing2
											{
												OFFSET -3.527054 0.000000 0.000000
												CHANNELS 3 Xrotation Yrotation Zrotation
												JOINT RightHandRing3
												{
													OFFSET -2.961098 0.000000 0.000000
													CHANNELS 3 Xrotation Yrotation Zrotation
													JOINT RightHandRing4
													{
														OFFSET -4.927200 0.000000 0.000000
														CHANNELS 3 Xrotation Yrotation Zrotation
														End Site
														{
															OFFSET 0.000000 0.000000 0.000000
														}
													}
												}
											}
										}
										JOINT RightHandPinky1
										{
											OFFSET -12.791786 -0.832077 -6.799222
											CHANNELS 3 Xrotation Yrotation Zrotation
											JOINT RightHandPinky2
											{
												OFFSET -3.327133 0.000000 0.000000
												CHANNELS 3 Xrotation Yrotation Zrotation
												JOINT RightHandPinky3
												{
													OFFSET -3.014900 0.000000 0.000000
													CHANNELS 3 Xrotation Yrotation Zrotation
													JOINT RightHandPinky4
													{
														OFFSET -5.847786 0.000000 0.000000
														CHANNELS 3 Xrotation Yrotation Zrotation
														End Site
														{
															OFFSET 0.000000 0.000000 0.000000
														}
													}
												}
											}
										}
									}
								}
							}
						}
					}
				}
			}
		}
	}
	JOINT LeftUpLeg
	{
		OFFSET 13.026900 -6.336304 -1.092800
		CHANNELS 3 Xrotation Yrotation Zrotation
		JOINT LeftLeg
		{
			OFFSET 0.524474 -46.096886 9.782700
			CHANNELS 3 Xrotation Yrotation Zrotation
			JOINT LeftFoot
			{
				OFFSET -0.524474 -53.427422 -12.948200
				CHANNELS 3 Xrotation Yrotation Zrotation
				JOINT LeftToeBase
				{
					OFFSET 0.192200 -14.009700 16.364100
					CHANNELS 3 Xrotation Yrotation Zrotation
					JOINT LeftToe_End
					{
						OFFSET -1.784700 -0.561700 9.474800
						CHANNELS 3 Xrotation Yrotation Zrotation
						End Site
						{
							OFFSET 0.000000 0.000000 0.000000
						}
					}
				}
			}
		}
	}
	JOINT RightUpLeg
	{
		OFFSET -12.883000 -6.336304 -1.092800
		CHANNELS 3 Xrotation Yrotation Zrotation
		JOINT RightLeg
		{
			OFFSET -0.524587 -46.096825 9.782800
			CHANNELS 3 Xrotation Yrotation Zrotation
			JOINT RightFoot
			{
				OFFSET 0.524587 -53.427383 -12.948300
				CHANNELS 3 Xrotation Yrotation Zrotation
				JOINT RightToeBase
				{
					OFFSET -0.192200 -14.009700 16.364100
					CHANNELS 3 Xrotation Yrotation Zrotation
					JOINT RightToe_End
					{
						OFFSET 1.784700 -0.561700 9.474800
						CHANNELS 3 Xrotation Yrotation Zrotation
						End Site
						{
							OFFSET 0.000000 0.000000 0.000000
						}
					}
				}
			}
		}
	}
}
MOTION
Frames: 4
Frame Time: 0.016667
-5.946005 102.252190 7.558242 -7.635082 22.585474 8.346082 19.098309 1.297545 0.628466 5.234406 1.638216 -0.510233 0.000000 0.000000 0.000000 5.225524 1.690289 -0.516648 -17.295337 -9.726843 -7.669280 -20.599086 -12.220332 0.353305 -0.000001 -0.000000 -0.000000 -0.697443 -12.691484 -24.679623 0.000000 0.000000 0.000000 -13.018062 -5.162533 -28.488924 51.978730 -46.839655 7.482861 4.023847 -22.781645 14.370769 11.432770 11.898673 2.278024 0.907268 24.171847 -3.294984 0.000005 -0.000018 0.000007 -0.000003 0.000001 0.000000 -4.825742 9.288206 -23.825220 3.434099 9.250165 -40.028395 0.000008 0.000003 0.000003 -0.000001 0.000000 -0.000002 -11.628060 16.087793 -27.374742 11.222062 9.790870 -61.810357 0.000001 -0.000010 0.000001 0.000000 -0.000002 -0.000001 -8.924435 18.188760 -48.130755 11.602470 5.110922 -60.456395 -0.000005 -0.000008 -0.000001 0.000001 0.000001 -0.000004 -5.365018 8.158740 -54.955753 9.871760 -13.977180 -74.788420 0.000001 0.000005 -0.000001 -0.000002 -0.000001 0.000001 6.242222 -2.614789 -11.084387 0.000000 0.000000 0.000000 -35.911372 -11.573026 -6.604743 -129.166090 14.300510 149.579353 18.373687 2.814413 -8.754310 -10.063569 -12.114446 -5.432846 -8.224838 -5.483058 5.365293 0.000005 -0.000011 -0.000010 -0.000003 0.000001 -0.000000 4.411657 -5.661974 62.206289 9.270956 -12.376243 79.811758 0.000011 -0.000000 -0.000011 -0.000000 0.000001 0.000004 -5.517164 -19.375247 62.311461 15.444361 -10.143918 85.739945 0.000001 -0.000002 0.000002 -0.000000 -0.000001 -0.000000 -7.692936 -21.405997 73.131218 13.187944 -6.413933 74.081891 0.000021 0.000018 0.000003 -0.000000 0.000001 -0.000001 -6.411615 -22.996135 83.381665 9.054124 13.497757 82.144739 0.000016 -0.000007 0.000000 0.000000 -0.000003 0.000003 -21.673847 -13.069761 5.263764 42.544804 -0.428182 0.197545 -16.577632 -5.222480 -16.320252 -0.000065 -0.000001 -0.000001 0.000000 0.000000 -0.000000 -17.438795 -27.361115 -26.687374 49.543365 -0.095463 -0.379880 -29.629183 -4.415329 9.792135 -0.000104 0.000007 0.000001 0.000000 0.000000 0.000000 
-6.191662 102.546753 8.183898 -7.866716 24.283553 8.239740 19.010903 1.210516 0.734903 5.096424 1.511982 -0.476952 0.000000 0.000000 0.000000 5.088411 1.550697 -0.475986 -18.172862 -7.374430 -11.412607 -20.891284 -12.073565 1.777840 0.000000 0.000000 -0.000000 -0.787871 -12.075489 -26.714958 0.000000 0.000000 0.000000 -11.942306 -3.432189 -26.261543 55.390870 -49.285177 10.889089 5.145023 -22.468980 14.527696 11.432770 11.898658 2.278037 1.501908 25.466710 -3.312484 -0.000000 -0.000016 -0.000000 -0.000001 0.000001 0.000005 -3.794576 7.957277 -23.971107 4.254783 10.064921 -46.827685 0.000003 0.000005 -0.000001 -0.000002 0.000000 0.000001 -11.756363 14.887295 -29.374195 11.904646 9.966840 -65.739587 0.000002 -0.000005 -0.000007 -0.000001 0.000001 -0.000000 -9.476060 18.032224 -49.017781 11.714553 5.347349 -61.842876 -0.000005 -0.000012 0.000000 -0.000002 -0.000002 -0.000002 -6.800919 9.633141 -56.189002 9.701544 -13.949396 -75.709423 0.000000 -0.000000 0.000001 0.000004 -0.000002 0.000003 7.717151 -7.373787 -5.050555 0.000000 0.000000 0.000000 -43.972153 -21.360500 -11.904039 -118.831317 10.484307 148.086479 21.961614 11.633978 -14.248331 -10.063579 -12.114470 -5.432867 -8.226158 -5.485135 5.369685 0.000002 -0.000015 -0.000012 -0.000001 -0.000002 0.000000 2.105027 -3.843913 56.888629 9.938182 -12.409276 83.561156 0.000013 -0.000001 -0.000002 0.000000 0.000000 -0.000002 -5.678364 -19.240260 61.807283 15.499933 -10.129649 85.942624 0.000002 0.000001 0.000006 -0.000000 0.000001 0.000001 -7.133079 -21.873423 74.675565 13.186712 -6.412967 74.079986 0.000026 0.000020 0.000002 -0.000000 -0.000001 0.000000 -5.396359 -23.712714 86.009102 9.042665 13.516158 81.894774 0.000020 -0.000012 0.000006 0.000000 -0.000001 -0.000002 -21.296716 -14.849332 5.183042 41.887604 -0.406697 0.196574 -16.443824 -5.206997 -16.621802 -0.000065 0.000000 -0.000001 0.000000 0.000001 0.000000 -16.215573 -29.295262 -26.167233 48.510005 -0.088657 -0.361083 -29.827699 -4.800674 9.703956 -0.000104 0.000009 0.000001 0.000000 0.000000 -0.000000 
-6.365509 102.905487 8.836250 -8.011194 26.389165 8.506069 19.011970 0.824737 0.889687 5.119967 0.756771 -0.529776 0.000000 0.000000 0.000000 5.119972 0.792228 -0.531182 -18.019887 -6.128817 -11.431358 -23.168533 -10.769687 0.960111 -0.000000 -0.000002 -0.000001 -0.786545 -12.473175 -26.068144 0.000000 0.000000 0.000000 -9.832098 0.874621 -25.954343 55.683735 -52.355753 13.970403 5.154076 -22.384072 15.753925 11.432777 11.898663 2.278011 2.008812 26.268624 -3.133981 0.000001 -0.000016 -0.000000 0.000000 0.000001 0.000003 -2.251136 6.806028 -25.190439 5.503151 11.025388 -56.130324 0.000006 0.000005 0.000007 0.000001 -0.000002 0.000000 -11.459817 14.203348 -33.122630 12.927593 10.135830 -71.691919 0.000003 -0.000007 -0.000004 0.000000 0.000003 -0.000001 -10.290475 17.678200 -51.680982 12.170163 5.710929 -65.667583 -0.000004 -0.000006 -0.000001 -0.000001 0.000000 -0.000001 -9.073660 11.365275 -57.531544 9.482011 -13.836137 -77.686708 -0.000001 0.000006 0.000001 -0.000000 0.000002 -0.000001 8.148601 -9.861669 -1.653015 0.000000 0.000000 0.000000 -54.292412 -30.007808 -14.466122 -110.199932 8.391174 146.424817 18.072107 15.336317 -13.285887 -10.063555 -12.114471 -5.432867 -8.227451 -5.487217 5.374032 0.000004 -0.000017 -0.000015 -0.000003 0.000000 0.000003 1.196549 -3.158875 56.657300 10.312594 -12.414087 85.657703 0.000010 -0.000001 -0.000005 -0.000000 -0.000000 -0.000000 -5.742765 -19.186657 61.604024 15.602915 -10.102563 86.317424 -0.000002 -0.000000 0.000005 -0.000003 -0.000004 -0.000003 -6.814861 -22.127542 75.537712 13.249238 -6.405604 74.350584 0.000023 0.000018 0.000002 0.000001 0.000001 -0.000000 -4.320086 -24.385631 88.689870 9.030334 13.536135 81.623028 0.000018 -0.000010 0.000009 -0.000001 0.000002 0.000002 -21.107264 -16.862730 4.538704 40.957233 -0.383344 0.192195 -16.136093 -5.141399 -16.857590 -0.000065 -0.000002 -0.000001 0.000000 -0.000001 -0.000000 -15.247608 -31.399725 -26.113437 47.392514 -0.081982 -0.347417 -30.001824 -5.302999 9.708100 -0.000104 0.000009 0.000001 0.000000 -0.000000 -0.000000 
-6.532282 103.286102 9.377457 -7.959075 28.262476 8.730655 19.017649 0.295778 1.046959 5.137559 -0.395264 -0.742505 0.000000 0.000000 0.000000 5.145102 -0.355855 -0.748201 -17.870381 -5.140436 -11.214740 -24.990209 -9.168328 -0.055150 -0.000001 -0.000001 -0.000000 -0.729891 -12.936520 -24.594046 0.000000 0.000000 0.000000 -7.448410 5.738901 -26.622708 53.665886 -55.184090 15.413768 5.030923 -22.352305 16.946782 11.432761 11.898680 2.278051 2.417363 26.741172 -2.824134 0.000001 -0.000016 -0.000000 0.000001 -0.000002 0.000001 -0.680613 5.686692 -26.936067 6.892005 11.728963 -65.387826 0.000003 0.000003 -0.000000 -0.000000 0.000003 -0.000001 -11.129756 13.721712 -37.247501 13.953073 10.245304 -77.699344 0.000004 0.000000 -0.000003 -0.000000 -0.000002 0.000002 -11.165320 17.079407 -55.081098 12.723725 6.058984 -69.966860 -0.000003 -0.000005 -0.000002 -0.000001 0.000002 -0.000002 -11.557510 12.642535 -58.779624 9.272223 -13.696365 -79.792688 0.000005 0.000004 0.000001 0.000005 0.000002 -0.000004 8.112590 -11.609561 1.893597 0.000000 0.000000 0.000000 -67.056161 -34.147613 -17.067565 -102.494228 5.567625 145.072371 10.148221 17.432291 -8.852118 -10.063571 -12.114473 -5.432856 -8.228739 -5.489379 5.378378 0.000004 -0.000010 -0.000013 0.000001 0.000000 0.000004 0.713227 -2.871475 56.761317 10.462547 -12.409613 86.501224 0.000015 -0.000000 -0.000005 0.000001 -0.000000 0.000000 -5.871333 -19.074762 61.194076 15.711440 -10.073260 86.712550 0.000002 -0.000001 0.000005 -0.000000 -0.000003 -0.000001 -6.700075 -22.214821 75.840768 13.352719 -6.393764 74.797832 0.000027 0.000015 0.000001 -0.000001 0.000000 -0.000001 -3.692247 -24.744696 90.215679 9.019897 13.553482 81.391259 0.000019 -0.000008 0.000004 0.000003 0.000000 -0.000000 -21.075560 -18.651566 3.917275 39.946016 -0.386339 0.185624 -15.744202 -5.008350 -17.049238 -0.000065 -0.000001 -0.000001 0.000000 0.000000 0.000000 -14.584923 -33.223167 -26.044695 46.311893 -0.088578 -0.336003 -30.060096 -5.756657 9.690996 -0.000104 0.000009 0.000001 0.000000 -0.000000 0.000000 
